<?xml version="1.0" encoding="UTF-8"?><svg id="Layer_1" xmlns="http://www.w3.org/2000/svg" viewBox="0 0 2934.67 878.91"><defs><style>.cls-1{fill:#fff;}.cls-2{fill:#d7282f;}</style></defs><g><path class="cls-1" d="M589.11,618.24v-216.16c0-45.29-20.29-67.98-60.93-67.98-12.01,0-23.61,3.56-34.79,10.64-11.17,7.08-18.99,15.23-23.48,24.48v249.01h-80.34v-228.73c0-16.96-5.26-30.43-15.83-40.44-10.51-9.98-25.34-14.96-44.43-14.96-10.11,0-21.08,3.79-32.99,11.3-11.97,7.55-20.59,15.83-25.94,24.88v247.95h-80.35V273.45h55.34l16.39,30.33c22.32-24.48,51.18-36.72,86.57-36.72,45.69,0,80.08,12.44,103.29,37.25,10.04-11.34,24.11-20.39,42.1-27.14,18.02-6.72,36.05-10.11,54.07-10.11,38.38,0,68.28,11.01,89.59,32.99,21.35,22.01,32.06,52.21,32.06,90.62v227.56h-80.34Z"/><path class="cls-1" d="M906.99,673.57c-8.58,22.94-26.97,41.96-55.17,57.13-28.2,15.09-61.05,22.68-98.6,22.68v-71.3c62.09,0,93.11-15.56,93.11-46.65,0-20.58-8.62-52.11-25.77-94.62l-107.78-267.36h83.53l94.18,238.1,85.66-238.1h83.54l-152.71,400.12Z"/><path class="cls-1" d="M1099.64,465v-75.56h170.26v75.56h-170.26Z"/><path class="cls-1" d="M1542.33,205.51c-17.63-5.79-31.13-8.68-40.56-8.68-15.24,0-28.21,6.58-38.85,19.72-10.64,13.14-15.93,29.3-15.93,48.48,0,2.83,.17,5.62,.53,8.42h71.31v66.51h-70.24v278.28h-80.35V339.96h-50.01v-66.51h50.01c1.7-42.34,14.24-76.52,37.55-102.53,23.34-26,53.47-39.01,90.45-39.01,19.08,0,42.43,4.19,69.94,12.54l-23.86,61.05Z"/><path class="cls-1" d="M1607.56,144.85l80.35-19.32v387.52c0,42.5,12.77,67.81,38.32,75.99-12.48,23.71-33.72,35.59-63.86,35.59-36.51,0-54.81-25.34-54.81-75.99V144.85Z"/><path class="cls-1" d="M2095.82,470.32h-246.52c1.49,27.6,10.95,49.02,28.38,64.32,17.41,15.3,40.89,22.94,70.35,22.94,36.79,0,64.73-9.74,83.87-29.26l31.3,61.72c-28.38,23.08-70.74,34.58-127.06,34.58-52.68,0-94.32-15.4-124.98-46.2-30.6-30.75-45.92-73.72-45.92-128.89s16.78-98.27,50.44-131.92c33.58-33.72,73.89-50.55,120.99-50.55,50.01,0,90.18,14.9,120.44,44.7,30.34,29.79,45.47,67.77,45.47,113.86,0,9.84-2.26,24.74-6.76,44.7Zm-243.86-60.66h169.74c-5.62-50.35-33.56-75.56-83.91-75.56-46.02,0-74.61,25.21-85.83,75.56Z"/><path class="cls-1" d="M2474.6,470.32h-246.53c1.51,27.6,10.95,49.02,28.38,64.32,17.43,15.3,40.91,22.94,70.37,22.94,36.79,0,64.71-9.74,83.87-29.26l31.28,61.72c-28.36,23.08-70.72,34.58-127.06,34.58-52.68,0-94.3-15.4-124.98-46.2-30.6-30.75-45.92-73.72-45.92-128.89s16.8-98.27,50.46-131.92c33.58-33.72,73.89-50.55,120.97-50.55,50.01,0,90.2,14.9,120.46,44.7,30.32,29.79,45.45,67.77,45.45,113.86,0,9.84-2.26,24.74-6.74,44.7Zm-243.86-60.66h169.72c-5.62-50.35-33.54-75.56-83.89-75.56-46.02,0-74.63,25.21-85.83,75.56Z"/><path class="cls-1" d="M2557.86,338.36h-39.91v-64.91h39.91v-70.33l80.35-29.7v100.03h94.71v64.91h-94.71v150.67c0,24.64,3.85,42.04,11.63,52.21,7.72,10.18,21.28,15.27,40.64,15.27s37.37-5.32,54.14-15.97v74.36c-18.69,6.48-45.29,9.72-79.8,9.72s-60.8-9.72-79.21-29.1c-18.49-19.41-27.75-47.02-27.75-82.84v-174.32Z"/></g><path class="cls-2" d="M1307.68,439.51c0,66.58-56.2,120.55-125.64,120.55s-125.58-53.97-125.58-120.55,56.2-120.65,125.58-120.65,125.64,54,125.64,120.65Z"/></svg>